<svg width="60" height="60" viewBox="0 0 60 60" fill="none" xmlns="http://www.w3.org/2000/svg"><path opacity=".5" d="m0 44 27.4 16V36.5L0 20.5V44Zm51.3-31.5V15c0 1.8-3.5 3.3-7.7 3.3-4.3 0-7.7-1.5-7.7-3.3v-4.1c.3 1.7 3.6 3 7.7 3 4.3 0 7.7-1.4 7.7-3.2 0-1.8-3.5-3.4-7.7-3.4h-1l-5-2.9v3.2c0 1.8-3.5 3.3-7.7 3.3-2.7 0-5-.6-6.4-1.5l-.7-.6c-.4-.4-.6-.8-.6-1.2v-3l-4.8 2.7h-1.1C12 7.3 8.6 9 8.6 10.7c0 1.8 3.5 3.3 7.7 3.3 4.1 0 7.4-1.4 7.7-3.1V15c0 1.8-3.5 3.3-7.7 3.3-4.3 0-7.7-1.5-7.7-3.3v-2.4l-6 3.5 27.5 16.1 27.4-16-6.2-3.7ZM37.7 22.8c0 1.8-3.5 3.3-7.7 3.3-4.3 0-7.7-1.5-7.7-3.3v-4.2c.3 1.7 3.6 3.1 7.7 3.1s7.4-1.4 7.7-3v4Zm-5.1 14V60L60 44V20.7l-27.4 16ZM29.9 6.5c4.3 0 7.7-1.5 7.7-3.3 0-1.8-3.5-3.3-7.7-3.3-4.3 0-7.7 1.5-7.7 3.3 0 1.8 3.4 3.3 7.7 3.3Z" fill="#149080"/></svg>